Coordinates
version=1
nRows=16
nColumns=36
inDegrees=yes

Units are S.I. units (second, meters, Newtons, ...)
If the header above contains a line with 'inDegrees', this indicates whether rotational values are in degrees (yes) or radians (no).

endheader
time	pelvis_tilt	pelvis_list	pelvis_rotation	pelvis_tx	pelvis_ty	pelvis_tz	hip_flexion_r	hip_adduction_r	hip_rotation_r	knee_angle_r	knee_angle_r_beta	ankle_angle_r	subtalar_angle_r	mtp_angle_r	hip_flexion_l	hip_adduction_l	hip_rotation_l	knee_angle_l	knee_angle_l_beta	ankle_angle_l	subtalar_angle_l	mtp_angle_l	lumbar_extension	lumbar_bending	lumbar_rotation	arm_flex_r	arm_add_r	arm_rot_r	elbow_flex_r	pro_sup_r	arm_flex_l	arm_add_l	arm_rot_l	elbow_flex_l	pro_sup_l
      2.88333330	    -12.62663966	      2.62481851	      0.39294480	      0.72881749	      1.22929006	     -0.58265073	     26.15668631	     -8.75425104	    -10.56538986	     27.37962168	      0.47786455	     -6.88921163	      0.50069591	     -7.49999987	     26.01875454	     -3.72078365	     -6.09984226	     31.77197285	      0.55452554	     -9.52347361	     -6.84959228	     -7.49999987	    -12.08441823	     -3.88916034	     -2.15410304	    -44.47454754	    -71.14520392	      0.04753694	     71.79632981	     53.87773379	    -69.16134107	    -48.38841155	    -30.86427317	     90.24115149	     61.44885218
      2.90000000	    -13.04128878	      2.28576739	     -0.07469948	      0.73565987	      1.20783346	     -0.58615352	     28.35473167	     -8.10761899	     -9.88890222	     24.71979010	      0.43144173	     -8.04762051	      1.69463348	     -7.49999987	     26.80383544	     -4.08665049	     -6.46815908	     26.85593112	      0.46872442	    -10.52486098	     -5.53201674	     -7.49999987	    -13.16065451	     -3.90424417	     -3.39779576	    -43.51950408	    -74.60659807	      8.64739106	     71.73173160	     46.44898783	    -71.88292418	    -41.61015653	    -30.91852627	     86.88583553	     71.14795857
      2.91666670	    -12.86877322	      2.11088455	     -0.56384834	      0.75016296	      1.18713229	     -0.58396789	     29.23212189	     -7.77453234	     -9.81106818	     21.93379580	      0.38281695	     -8.64650355	      3.43248440	     -7.49999987	     26.37863176	     -4.53078389	     -6.41619820	     21.74539851	      0.37952880	    -13.39576774	     -4.87856152	     -7.49999987	    -14.32261860	     -3.98356846	     -3.85606192	    -46.63766352	    -76.07999481	     10.72460652	     71.64542546	     46.15015302	    -74.63993588	    -37.28037038	    -32.22244202	     86.09582273	     71.35270422
      2.93333330	    -12.57119620	      2.35139820	     -0.93072597	      0.77757262	      1.14965871	     -0.59726649	     30.20164287	     -8.29092142	     -9.97792757	     20.89323189	      0.36465569	     -8.35132167	      4.60961013	     -7.49999987	     26.09942021	     -4.45380439	     -6.61641559	     19.46279646	      0.33968988	    -13.81602787	     -4.94937572	     -7.49999987	    -14.43950547	     -4.14016080	     -5.22711068	    -52.07474079	    -78.99534551	     12.82032706	     71.43953059	     43.69467207	    -78.09098147	    -31.68319667	    -35.00295920	     85.14125322	     75.85165934
      2.95000000	    -12.44292508	      2.46329238	     -0.82064192	      0.78787557	      1.12774315	     -0.59953814	     32.30305045	     -8.87431284	     -9.22804378	     21.52983247	      0.37576646	     -7.40288679	      6.11185049	     -7.49999987	     28.69332667	     -4.31350003	     -6.30335722	     20.13125978	      0.35135677	    -12.85836184	     -5.24077407	     -7.49999987	    -15.83925881	     -3.94854566	     -4.73047602	    -53.15466499	    -75.46873251	     13.04070668	     67.52590446	     43.85875954	    -74.98404087	    -28.80380685	    -35.83334747	     82.26743095	     76.13059548
      2.96666670	    -12.26825244	      2.49617017	     -0.54733484	      0.79085322	      1.09015752	     -0.59667666	     34.53840691	     -9.13513091	     -8.25361377	     22.64497179	      0.39522932	     -6.24676021	      6.27834888	     -7.49999987	     31.20779235	     -4.28207519	     -5.39713588	     21.43235296	      0.37406513	    -11.32200717	     -6.05979824	     -7.49999987	    -17.43004673	     -3.75431888	     -5.26996060	    -54.01065875	    -74.18010552	     13.46897888	     66.37449061	     44.37959489	    -74.16457858	    -27.70137418	    -36.48962653	     81.49358671	     75.70498469
      2.98333330	    -12.46498594	      2.39696688	     -0.14318729	      0.79704818	      1.06044196	     -0.59341152	     37.20063268	     -9.26233668	     -7.67387544	     24.43381381	      0.42645050	     -5.30046114	      6.98178623	     -7.49999987	     34.63945545	     -4.48527673	     -3.99014311	     23.37234380	      0.40792435	    -10.61610920	     -7.64111241	     -7.49999987	    -19.76906625	     -3.96950920	     -4.79426502	    -51.77726621	    -68.29827932	      9.96692209	     63.68662386	     49.71739750	    -70.27364707	    -26.65386353	    -40.03409189	     80.31963424	     84.65650529
      3.00000000	    -12.75868415	      2.06708524	      0.17432101	      0.81361935	      1.02149458	     -0.58831853	     40.10147171	     -8.87508124	     -6.82983990	     27.32875106	      0.47697669	     -3.90178278	      6.75645637	     -7.49999987	     38.11096532	     -4.93679120	     -3.23022909	     26.34500140	      0.45980702	     -9.13875560	     -7.82485219	     -7.49999987	    -21.66262332	     -3.90548518	     -4.32986138	    -48.12179622	    -61.86876415	      8.78424541	     60.30879646	     51.06630852	    -65.90936751	    -26.41293019	    -41.66345004	     76.77164888	     84.34406475
      3.01666670	    -13.42353849	      1.52277892	      0.43360806	      0.82449179	      0.98171624	     -0.58139543	     43.17524606	     -8.22983976	     -6.25756069	     30.41522717	      0.53084586	     -2.41781791	      6.51749704	     -7.49999987	     42.02166093	     -5.82324054	     -2.71252945	     28.93600597	      0.50502858	     -7.74873348	     -7.48352325	     -7.49999987	    -23.55582158	     -3.68689982	     -5.11206827	    -41.46528763	    -54.09310324	      7.47342438	     55.68073139	     61.13518898	    -61.00193421	    -25.00821213	    -42.22830975	     77.33222740	     92.00737549
      3.03333330	    -13.99500504	      1.29696560	      0.22304688	      0.84892418	      0.94567183	     -0.58923571	     45.54552640	     -7.63327153	     -5.02168650	     33.23634987	      0.58008374	      0.26139833	      6.86506989	     -7.49999987	     44.86082871	     -6.28786852	     -2.37250469	     31.44124620	      0.54875327	     -4.04721790	     -5.84232277	     -7.49999987	    -24.42589598	     -3.10734035	     -3.87066287	    -33.12319989	    -46.66117000	      7.73291180	     48.24129714	     61.10824588	    -50.09078475	    -24.36769968	    -38.95981160	     70.73712527	     91.73524772
      3.05000000	    -14.61528457	      1.34952702	      0.13686950	      0.85642753	      0.90217142	     -0.59270114	     49.80744806	     -7.13028233	     -2.37879986	     39.97389972	      0.69767616	      5.33320147	      5.62927842	     -7.49999987	     49.39390127	     -6.41100131	     -1.67074645	     37.93043677	      0.66201101	      2.68272615	     -3.73028198	     -7.49999987	    -24.92818470	     -2.66913067	     -3.34173383	    -26.28502292	    -39.07402682	      4.34017927	     41.23580921	     68.95065968	    -39.48891694	    -23.50165153	    -35.91014979	     63.23156354	     99.80002958
      3.06666670	    -15.78912948	      1.41705094	      0.03589086	      0.87136752	      0.87110659	     -0.59787103	     55.41157391	     -6.56137722	      0.20892385	     48.90865079	      0.85361699	     10.98810752	      3.91981228	     -7.49999987	     55.19034013	     -6.68196149	     -0.97215019	     46.51095594	      0.81176932	      9.68017934	     -2.14262093	     -7.49999987	    -25.06346823	     -2.30805477	     -3.95043961	    -16.50800429	    -32.12424091	      1.75436404	     32.75607713	     68.77556980	    -28.49996685	    -21.70571113	    -30.83060964	     54.58705425	     98.80698699
      3.08333330	    -16.63861025	      1.29006540	      0.13547921	      0.87056653	      0.84571574	     -0.59725315	     61.30130467	     -5.80033964	      2.32874925	     58.35204122	      1.01843524	     15.46573524	      2.50227758	     -7.49999987	     61.42338532	     -7.23387844	     -0.50318850	     56.09440829	      0.97903212	     15.49213957	     -0.60709324	     -7.49999987	    -26.79236488	     -1.79761142	     -1.22644496	    -10.24860521	    -25.47642322	     -7.39415485	     29.83736686	     73.59220580	    -13.86964836	    -22.20496527	    -20.10671783	     43.07034773	    100.00762455
      3.10000000	    -16.93636647	      1.11404145	      0.20964592	      0.86601776	      0.82181337	     -0.59983511	     66.11222013	     -4.89272139	      3.95355804	     66.45855328	      1.15992057	     18.65752850	      1.31255246	     -7.49999987	     66.55954480	     -7.62443904	      0.07238305	     64.35362400	      1.12318262	     19.86649416	      0.76792518	     -7.49999987	    -30.68680689	     -1.77984550	     -1.89798190	      0.27053168	    -21.53559081	     -7.06576254	     28.08787899	     74.09106032	     -3.68110763	    -20.49122776	    -17.41800771	     37.69494112	    102.23113391
      3.11666670	    -16.67149824	      0.98324384	      0.05431753	      0.87942964	      0.79766300	     -0.60532664	     69.04865911	     -4.19967452	      5.10509198	     72.93011274	      1.27287059	     21.71361897	      0.90955114	     -7.49999987	     69.69259040	     -7.92281412	      0.61776074	     71.07909994	      1.24056432	     23.62392007	      1.85762665	     -7.49999987	    -35.67453287	     -1.46152080	      0.16876200	      7.95036893	    -19.62423535	     -7.82688160	     27.30194456	     70.06809438	      7.92084521	    -18.29877736	     -8.51793620	     30.88175352	     96.46236223
      3.13333330	    -16.90857489	      0.77712730	      0.01726838	      0.87720491	      0.77880814	     -0.59600032	     71.63639171	     -3.45366808	      5.88459777	     77.80594636	      1.35796994	     24.00472929	      0.59807198	     -7.49999987	     72.71874035	     -8.23646608	      1.32425638	     76.29447247	      1.33158975	     26.43415866	      2.55972954	     -7.49999987	    -40.61567429	     -1.99026720	      0.21034611	     18.88453616	    -16.80810400	     -6.20584103	     25.76764961	     70.15857992	     17.56066979	    -16.93019855	     -8.85510759	     26.96553084	     97.59145871
